<svg xmlns="http://www.w3.org/2000/svg" xmlns:xlink="http://www.w3.org/1999/xlink" width="385" height="671.246" viewBox="0 0 385 671.246">
  <defs>
    <linearGradient id="linear-gradient" x1="0.037" y1="0.039" x2="0.482" y2="0.985" gradientUnits="objectBoundingBox">
      <stop offset="0" stop-color="#114b5f"/>
      <stop offset="1" stop-color="#456990"/>
    </linearGradient>
  </defs>
  <path id="Sottrazione_1" data-name="Sottrazione 1" d="M-1568,790.746h0l-7.137-1.9-3.009-.8c-7.573-2-20.242-5.359-32.63-8.333-5.243-1.268-11.425-2.7-17.529-3.727a105.481,105.481,0,0,0-17.515-1.612,73.837,73.837,0,0,0-7.734.4,141.636,141.636,0,0,0-19.1,3.845c-7.782,1.94-15.829,3.946-23.682,4.144-.457.011-.925.017-1.392.017-7.8,0-15.739-1.614-23.422-3.174a155.678,155.678,0,0,0-17.964-2.927c-2.122-.167-4.283-.248-6.608-.248a198.111,198.111,0,0,0-21.313,1.551h-.007c-4.875.532-9.916,1.083-14.85,1.356-2.724.15-5.6.222-8.793.222-4.821,0-9.724-.169-14.466-.333h-.029c-4.737-.165-9.635-.335-14.445-.335-1.783,0-3.433.023-5.044.069-5.953.158-12.018.656-17.884,1.137h-.008c-7.112.583-14.465,1.187-21.653,1.187-1.1,0-2.187-.014-3.233-.042-7.706-.22-15.564-1.212-23.164-2.172h-.006c-6.441-.813-13.1-1.654-19.607-2.014-2.582-.142-5.323-.214-8.146-.214a256.013,256.013,0,0,0-26.95,1.685l-.463.049-7.219.763V119.5h385V790.746Z" transform="translate(1953 -119.5)" fill="url(#linear-gradient)"/>
</svg>

