<svg xmlns="http://www.w3.org/2000/svg" xmlns:xlink="http://www.w3.org/1999/xlink" width="1265.427" height="949.364" viewBox="0 0 1265.427 949.364">
  <defs>
    <linearGradient id="linear-gradient" x1="1.46" y1="-0.129" x2="0.804" y2="0.848" gradientUnits="objectBoundingBox">
      <stop offset="0" stop-color="#114b5f"/>
      <stop offset="1" stop-color="#456990"/>
    </linearGradient>
  </defs>
  <g id="Raggruppa_2" data-name="Raggruppa 2" transform="translate(-718.627 57.364)">
    <path id="Tracciato_1" data-name="Tracciato 1" d="M719.164-56.864S715.2,112.818,830,176.154s220.314,51.3,270.488,148.306,40.139,117.073,0,194.007,13.38,180.627,160.557,230.8S1408.223,909.826,1555.4,863s204.042-73.589,133.8-250.871-26.76-230.8,50.174-307.735,244.181,43.484,244.181,43.484V-56.864Z" stroke="#707070" stroke-width="1" fill="url(#linear-gradient)"/>
    <g id="undraw_teaching_f1cm" transform="translate(889.1 250.631)">
      <rect id="Rettangolo_1" data-name="Rettangolo 1" width="72.767" height="21.999" rx="7.43" transform="translate(164.04 109.997)" fill="#6c63ff" opacity="0.1"/>
      <rect id="Rettangolo_2" data-name="Rettangolo 2" width="72.767" height="21.999" rx="7.43" transform="translate(240.192 131.997)" fill="#6c63ff" opacity="0.1"/>
      <rect id="Rettangolo_3" data-name="Rettangolo 3" width="72.767" height="21.999" rx="7.43" transform="translate(316.344 153.996)" fill="#6c63ff" opacity="0.1"/>
      <rect id="Rettangolo_6" data-name="Rettangolo 6" width="72.767" height="21.999" rx="7.43" transform="translate(316.344 120.997)" fill="#6c63ff" opacity="0.1"/>
      <rect id="Rettangolo_7" data-name="Rettangolo 7" width="72.767" height="21.999" rx="7.43" transform="translate(400.957 109.997)" fill="#6c63ff" opacity="0.1"/>
      <rect id="Rettangolo_8" data-name="Rettangolo 8" width="72.767" height="21.999" rx="7.43" transform="translate(477.109 131.997)" fill="#6c63ff" opacity="0.1"/>
      <rect id="Rettangolo_9" data-name="Rettangolo 9" width="72.767" height="21.999" rx="7.43" transform="translate(553.261 153.996)" fill="#6c63ff" opacity="0.1"/>
      <rect id="Rettangolo_12" data-name="Rettangolo 12" width="72.767" height="21.999" rx="7.43" transform="translate(553.261 120.997)" fill="#6c63ff" opacity="0.1"/>
      <rect id="Rettangolo_33" data-name="Rettangolo 33" width="72.767" height="21.999" rx="7.43" transform="translate(553.261 545.756)" fill="#6c63ff" opacity="0.1"/>
      <rect id="Rettangolo_36" data-name="Rettangolo 36" width="72.767" height="21.999" rx="7.43" transform="translate(553.261 512.757)" fill="#6c63ff" opacity="0.1"/>
      <rect id="Rettangolo_40" data-name="Rettangolo 40" width="72.767" height="21.999" rx="7.43" transform="translate(164.04 391.76)" fill="#6c63ff" opacity="0.1"/>
      <rect id="Rettangolo_41" data-name="Rettangolo 41" width="72.767" height="21.999" rx="7.43" transform="translate(240.192 413.759)" fill="#6c63ff" opacity="0.1"/>
      <rect id="Rettangolo_45" data-name="Rettangolo 45" width="72.767" height="21.999" rx="7.43" transform="translate(553.261 468.758)" fill="#6c63ff" opacity="0.1"/>
      <rect id="Rettangolo_46" data-name="Rettangolo 46" width="72.767" height="21.999" rx="7.43" transform="translate(400.957 391.76)" fill="#6c63ff" opacity="0.1"/>
      <rect id="Rettangolo_48" data-name="Rettangolo 48" width="72.767" height="21.999" rx="7.43" transform="translate(553.261 435.759)" fill="#6c63ff" opacity="0.1"/>
      <ellipse id="Ellisse_1" data-name="Ellisse 1" cx="371.03" cy="30.461" rx="371.03" ry="30.461" transform="translate(37.12 580.448)" fill="#6c63ff" opacity="0.1"/>
      <path id="Tracciato_2" data-name="Tracciato 2" d="M197.445,256c34.988,15.163,55.092,46.537,55.092,46.537s-36.629,6.769-71.625-8.385-55.092-46.537-55.092-46.537S162.449,240.838,197.445,256Z" transform="translate(-125.82 -97.943)" fill="#6c63ff"/>
      <path id="Tracciato_3" data-name="Tracciato 3" d="M335.557,184.23C346.379,166.461,364.808,158,364.808,158s.846,20.256-9.942,37.974-29.259,26.171-29.259,26.171S324.727,201.9,335.557,184.23Z" transform="translate(-156.558 -84.386)" fill="#6c63ff"/>
      <path id="Tracciato_4" data-name="Tracciato 4" d="M242.769,201.6c7.742,27.635,29.082,45.827,29.082,45.827s8.791-26.628,1.049-54.271-29.09-45.827-29.09-45.827S235.019,173.958,242.769,201.6Z" transform="translate(-143.323 -82.745)" fill="#46455b"/>
      <rect id="Rettangolo_49" data-name="Rettangolo 49" width="616.831" height="308.839" rx="7.21" transform="translate(100.58 117.613)" fill="#3f3d56"/>
      <path id="Tracciato_5" data-name="Tracciato 5" d="M118.87,482H735.7v12.514a6.1,6.1,0,0,1-6.1,6.1H124.971a6.1,6.1,0,0,1-6.1-6.1Z" transform="translate(-18.29 -74.164)" opacity="0.1"/>
      <rect id="Rettangolo_50" data-name="Rettangolo 50" width="45.691" height="22.846" rx="2.5" transform="translate(160.655 384.991)" fill="#6c63ff"/>
      <rect id="Rettangolo_51" data-name="Rettangolo 51" width="31.307" height="3.385" rx="1.692" transform="translate(219.039 404.452)" fill="#6c63ff"/>
      <path id="Tracciato_6" data-name="Tracciato 6" d="M342.719,278.738c22.329,4.121,45.107,0,67.344-2.792l67.581-8.461c2.733-.347,6.71-1.98,8.318,1.362.905,1.87.3,5.923.364,8.072.178,5.923.161,11.846,0,17.769-.3,11.321-1.134,22.617-2.192,33.888-2.056,22.059-4.967,44-6.422,66.142-.745,11.271-1.117,22.575-.787,33.845.076,2.691.186,5.381.347,8.064.178,3,1.523,7.463-1.751,9.468-1.87,1.151-5.551,1.092-7.691,1.43-3.385.533-6.769.956-10.221,1.3-22.753,2.276-45.8,1.328-68.638,1.193l-68.96-.355-16.821-.093c-1.523,0-7.014.914-7.954-.9-.4-.77.66-4.375.846-5.339q.389-2.386.846-4.764c1.963-11.127,4.281-22.186,6.617-33.236,5.018-23.692,10.154-47.5,12.218-71.7,1.024-12.142.347-24.394,1.6-36.511.584-5.627,1.278-18.183,8.766-18.683,6.346-.423,12.878,0,19.241,0a1.269,1.269,0,1,0,0-2.538c-6.008,0-12.024-.161-18.031-.042-3.994.076-6.769,1.024-8.673,4.7-4.865,9.426-4.366,22-4.518,32.288-.364,24.631-4.146,48.737-9.071,72.827-2.479,12.125-5.153,24.208-7.615,36.341-1.159,5.8-2.268,11.609-3.283,17.439-.474,2.775-2.868,8.893-.762,11.44s8.588,1.176,11.49,1.193l20.189.118,38.685.22c24.995.144,50.074.846,75.061.11,11.93-.355,24.538-.846,36.155-3.7,3.461-.846,5.128-2.437,5.263-6.126.2-5.72-.728-11.617-.846-17.363-.846-49.16,10.7-97.635,9.519-146.813-.076-3.342,1.185-11.77-2.471-13.792-1.642-.914-3.774-.415-5.5-.212-3.3.381-6.591.846-9.891,1.235l-42.857,5.348c-13.7,1.692-27.389,3.52-41.114,5.077-14.528,1.692-29.2,2.7-43.677,0-1.6-.3-2.285,2.149-.677,2.445Z" transform="translate(-151.476 -100.729)" fill="#6c63ff"/>
      <path id="Tracciato_7" data-name="Tracciato 7" d="M319.778,314.76l169.074-8.292c1.633-.085,1.641-2.623,0-2.538l-169.074,8.292C318.153,312.3,318.145,314.836,319.778,314.76Z" transform="translate(-155.476 -106.84)" fill="#6c63ff"/>
      <path id="Tracciato_8" data-name="Tracciato 8" d="M381.35,290.513a4.231,4.231,0,0,0,1.5,6.828c2.276,1.041,4.95.169,7.209-.4,3.385-.846,6.769-1.6,10.247-2.217a139.739,139.739,0,0,1,22.922-2.132c3.5-.042,6.981.118,10.484.271,2.538.1,5.271.3,7.421-1.269,2.454-1.794,3.249-5.3.846-7.48-3.385-3.088-10.678-1.295-14.587-.973a327.125,327.125,0,0,0-42.188,6.3c-1.591.338-.922,2.792.677,2.445q13.767-2.97,27.745-4.772,6.871-.846,13.767-1.43c2.166-.178,4.332-.338,6.5-.465.846-.051,1.743-.144,2.606-.118,2.682.059,3-.423,1.388,2.818-1.43,2.868-.973,2.538-3.452,2.445-1.049,0-2.1-.118-3.148-.169q-3.224-.135-6.448-.144-6.862,0-13.69.66c-3.858.372-7.708.9-11.524,1.574-2.386.423-4.755.914-7.116,1.455-1.041.245-2.09.5-3.131.762-.5.135-1.007.254-1.506.381q-2.775.965-4.73-2.538c1.134-1.176-.652-2.978-1.794-1.794Z" transform="translate(-164.96 -103.517)" fill="#6c63ff"/>
      <path id="Tracciato_9" data-name="Tracciato 9" d="M410.445,334.325c-12.244-.474-25.469,2.835-33.532,12.692-6.312,7.708-9.908,20.933-3.224,29.615,7.184,9.307,22.939,7.666,32.441,3.7,10.052-4.231,21.052-12.954,24.073-23.869,3.765-13.631-8.461-23.937-21.2-24.089a1.27,1.27,0,0,0,0,2.538c7.26.085,14.384,3.2,17.769,9.959,3.545,7.124.491,14.6-4.231,20.307-7.564,9.079-19.393,15.924-31.442,15.73-7.234-.11-15.23-2.589-17.473-10.221-1.845-6.185-.44-12.946,2.775-18.429,6.955-11.846,21.111-15.857,34.091-15.349,1.633.059,1.633-2.479,0-2.538Z" transform="translate(-163.408 -111.216)" fill="#6c63ff"/>
      <path id="Tracciato_10" data-name="Tracciato 10" d="M402.6,355.359a3.3,3.3,0,0,0-4.434,3.384c.254,3.3,3.892,4.231,6.625,4.036,2.361-.2,5.119-1.075,4.29-4.028a3.791,3.791,0,0,0-2.065-2.386,4.78,4.78,0,0,0-2.386-.3c-.313,0-3.181,1.049-1.963-.212l-2-.262a2.081,2.081,0,0,1,.609,1.692,1.278,1.278,0,0,0,1.9,1.091,1.692,1.692,0,0,1,2.293,1.98,1.278,1.278,0,0,0,2.318.982c.846-1.523,1.87-4.552.6-6.143-.846-1.075-2.479-.753-3.495-.127a12.245,12.245,0,0,0-1.743,1.5c-1.024.905-1.692,1.328-1.312-.406.635-3.156,3.647-5.669,6.4-6.93l-1.862-1.43a26.754,26.754,0,0,1-5.119,10.027l2.166.9a5.652,5.652,0,0,1,3.452-5.508h-1.244l.66,1.083c-.245,1.6,2.2,2.285,2.445.668.322-2.09-1-4.806-3.444-3.782-2.919,1.218-4.434,4.561-4.375,7.539,0,1.015,1.438,1.8,2.175.905a29.834,29.834,0,0,0,5.762-11.16,1.286,1.286,0,0,0-1.87-1.43,14.19,14.19,0,0,0-6.16,5.364c-1.032,1.692-2.327,4.332-1.278,6.278a2.691,2.691,0,0,0,3.681,1.041,9.9,9.9,0,0,0,2.124-1.692c.313-.279.66-.762,1.075-.846.372-.254.355-.11-.059.448a4.612,4.612,0,0,1-.736,2.471l2.318.973a4.231,4.231,0,0,0-6.016-4.848l1.912,1.1a4.612,4.612,0,0,0-.956-2.987,1.286,1.286,0,0,0-1.988-.262,3.32,3.32,0,0,0,.085,4.916c1.21.922,1.8,0,3.131-.212,4.51-.584,1.878,1.447.288,1.515a6,6,0,0,1-2.124-.152q-2.648-.9-.33-2.31c1.515.618,2.166-1.836.677-2.445Z" transform="translate(-167.723 -113.449)" fill="#6c63ff"/>
      <path id="Tracciato_11" data-name="Tracciato 11" d="M398.705,362.1c1.041,3.385-3.258,4.5-5.3,5.669a11.8,11.8,0,0,0-3.664,3.207c-2.132,2.86-2.928,6.5-3.63,9.925-.322,1.6,2.124,2.276,2.454.677a28.771,28.771,0,0,1,2.141-7.3c1.523-3.029,3.706-4.045,6.549-5.6s4.9-3.968,3.892-7.251c-.474-1.557-2.928-.888-2.445.677Z" transform="translate(-165.866 -115.55)" fill="#6c63ff"/>
      <path id="Tracciato_12" data-name="Tracciato 12" d="M403.539,360.37a2.454,2.454,0,0,0-2.115,2.538c0,1.007.668,1.65,1.125,2.454A19.376,19.376,0,0,1,405,370.7c.406,1.819.8,5.077-.144,6.769-1.751,3.139-4.916,2.538-7.615,2.538-2.538,0-4.5.846-4.417-2.691.051-1.988,1.438-4,2.538-5.568l-2.318-.3a44.227,44.227,0,0,1,.77,7.835c0,1.176,1.8,1.828,2.361.635A49.019,49.019,0,0,0,399.4,371l-2.5-.338.44,6.431a1.278,1.278,0,0,0,2.361.643,2.877,2.877,0,0,0,.635-1.142c.085-.4-.694-3.08-1.007-2.124l2.488.338L402,368.7l-2.538.338a12.641,12.641,0,0,1,.474,5.331c-.161,1.413,2.217,1.735,2.538.339l1.591-8.208-2.318.3a5.61,5.61,0,0,1,.431,3.655c-.186,1.625,2.352,1.608,2.538,0a8.918,8.918,0,0,0-.778-4.933,1.278,1.278,0,0,0-2.318.3l-1.6,8.208,2.5.338a13.842,13.842,0,0,0-.567-6,1.269,1.269,0,0,0-2.488.33l-.178,6.109a1.275,1.275,0,0,0,2.5.338l.135-.415a1.286,1.286,0,0,0-.322-1.235c-2.631-2.86-3.165,1.692-4.078,2.953l2.369.643-.44-6.431a1.277,1.277,0,0,0-2.5-.338,45.491,45.491,0,0,1-2.961,8.317l2.369.643a47.843,47.843,0,0,0-.846-8.512c-.22-1.168-1.751-1.117-2.318-.3-1.692,2.437-4.62,7.759-2.361,10.678,1.971,2.538,8.174,1.557,10.822,1.4,4.18-.237,5.694-2.885,6.151-6.828a16.719,16.719,0,0,0-.313-5.652c-.228-1-2.538-7.328-3.232-7.2,1.608-.3.922-2.75-.677-2.454Z" transform="translate(-166.47 -115.524)" fill="#6c63ff"/>
      <path id="Tracciato_13" data-name="Tracciato 13" d="M398.834,366.474l-6.93,9.147L394.1,376.9l5.077-7.344-2.318-.982-2.53,9.654a1.278,1.278,0,0,0,2.318.982,44.6,44.6,0,0,1,3.867-5.441l-2.115-1.235a13.817,13.817,0,0,1-3.19,5.864l2.124,1.235a11.338,11.338,0,0,1,.922-3.385c.652-1.464-1.413-2.758-2.191-1.286a29.788,29.788,0,0,1-2.445,3.841l2.318.3.516-2.411-2.318-.3.372,2.115a1.278,1.278,0,0,0,2.124.558,25.266,25.266,0,0,0,5.077-7.658h-2.183a11.4,11.4,0,0,1,1.193,3.385c.3,1.523,2.327.956,2.488-.338a68.794,68.794,0,0,0,.558-8.546H401.22v5.322c0,1.379,2.259,1.785,2.5.338a9.7,9.7,0,0,1,1.244-3.638h-2.225a5.643,5.643,0,0,1,.846,2.877,1.269,1.269,0,0,0,2.538,0l.322-1.692H404c.245,1.5,1.176,9.934-2.132,8.944-.558-.135-.719-.1-.482.093l.753-1.608L403.9,372.8l-2.369-.643c.152,1.743.313,4.231-.736,5.72-.846,1.21-3.452,1.692-4.781.982a8.463,8.463,0,0,1-2.208-2.318l-1.735,1.692c1.4,1.024,3.681,3.537,5.491,3.681,1.379.11,2.538-1.032,3.444-1.946a14.748,14.748,0,0,0,4.138-10.856,1.269,1.269,0,1,0-2.538,0V372a1.269,1.269,0,1,0,2.538,0v-7.1a1.269,1.269,0,0,0-2.538,0,30.468,30.468,0,0,1-.44,5.077l2.5.338a58.436,58.436,0,0,1-.279-6.084,1.269,1.269,0,0,0-2.488-.338c-.381,1.616-.846,3.207-1.295,4.789l2.318-.3-.178-.677c-.118-1.616-2.657-1.625-2.538,0a4.645,4.645,0,0,0,.525,1.963,1.282,1.282,0,0,0,2.318-.3c.482-1.591.914-3.181,1.295-4.789l-2.5-.338a58.446,58.446,0,0,0,.279,6.084c.127,1.3,2.225,1.862,2.488.338a34.969,34.969,0,0,0,.533-5.788h-2.538v7.1h2.538v-2.894h-2.538a12.2,12.2,0,0,1-3.088,8.7,10.4,10.4,0,0,1-1.066,1.049c-.6.575-1.151.491-1.633-.262a21.141,21.141,0,0,1-3.495-2.538c-1.049-.753-2.488.736-1.743,1.735,1.946,2.589,4.848,5.474,8.461,4.231,3.8-1.345,4.315-6.49,4.028-9.874-.093-1.125-1.777-1.887-2.361-.635-.846,1.785-1.692,3.562-2.538,5.356a4.732,4.732,0,0,0-.762,2.234c.279,1.9,2.589,1.591,4.011,1.481,5.508-.415,4.637-8.224,4-12.15-.212-1.3-2.107-1.1-2.445,0a7.472,7.472,0,0,0-.415,2.4H406.1a10.06,10.06,0,0,0-1.193-4.155,1.278,1.278,0,0,0-2.191,0,12.337,12.337,0,0,0-1.506,4.231l2.538.338v-5.322a1.269,1.269,0,0,0-2.538,0,68.8,68.8,0,0,1-.558,8.546l2.5-.338a14.527,14.527,0,0,0-1.447-3.96,1.278,1.278,0,0,0-2.191,0,23.15,23.15,0,0,1-4.679,7.141l2.124.558-.372-2.115c-.195-1.125-1.785-1.159-2.318-.3a5.568,5.568,0,0,0-.77,4.366c.212,1.2,1.735,1.075,2.318.3a29.7,29.7,0,0,0,2.445-3.833l-2.191-1.286a14.433,14.433,0,0,0-1.185,3.985c-.152,1.117,1.176,2.285,2.124,1.235a16.923,16.923,0,0,0,3.841-6.989c.313-1.151-1.278-2.242-2.124-1.235a48.474,48.474,0,0,0-4.231,5.923l2.318.982,2.581-9.621a1.278,1.278,0,0,0-2.318-.982L392,375.621c-.948,1.362,1.227,2.538,2.191,1.278l6.9-9.138c.982-1.3-1.218-2.538-2.191-1.286Z" transform="translate(-166.68 -115.926)" fill="#6c63ff"/>
      <path id="Tracciato_14" data-name="Tracciato 14" d="M527.422,386.961c10.154-6.211,18.226-15.476,27.195-23.226,9.731-8.4,19.943-16.229,30.461-23.641C605.5,325.71,626.952,312.84,648.385,300a1.269,1.269,0,0,0-1.278-2.191c-21.433,12.836-42.891,25.68-63.316,40.09-9.637,6.769-19.046,13.944-28.066,21.559-9.815,8.292-18.556,18.615-29.615,25.308-1.4.846-.118,3.046,1.278,2.191Z" transform="translate(-187.318 -105.876)" fill="#6c63ff"/>
      <path id="Tracciato_15" data-name="Tracciato 15" d="M703.281,253.849c-11,1.117-22.846,3.918-29.615,13.538-5.847,8.275-5.72,22.71-.229,31.205,6.236,9.654,18.979,10,28.879,6.879s20.146-8.6,20.053-20.426c-.051-6.346-2.344-12.954-4.874-18.708-2.183-4.967-6.05-9.307-11.905-8.757-1.616.152-1.633,2.691,0,2.538,7.844-.728,10.365,8.588,12.227,14.469,1.692,5.491,3.258,11.99.6,17.447s-9.062,8.241-14.537,10.238c-5.923,2.149-12.43,3.461-18.615,1.692-12.252-3.427-15.637-18.953-12.108-29.97,4.061-12.692,18.446-16.423,30.165-17.608,1.608-.161,1.625-2.7,0-2.538Z" transform="translate(-209.443 -99.133)" fill="#6c63ff"/>
      <path id="Tracciato_16" data-name="Tracciato 16" d="M723.281,369.849c-11,1.117-22.846,3.918-29.615,13.538-5.847,8.275-5.72,22.71-.229,31.205,6.236,9.654,18.979,10,28.879,6.879s20.146-8.6,20.053-20.426c-.051-6.346-2.344-12.954-4.874-18.708-2.183-4.967-6.05-9.307-11.905-8.757-1.616.152-1.633,2.691,0,2.538,7.844-.728,10.365,8.588,12.227,14.469,1.692,5.491,3.258,11.99.6,17.447s-9.062,8.241-14.537,10.238c-5.923,2.149-12.43,3.461-18.615,1.692-12.252-3.427-15.637-18.953-12.108-29.97,4.061-12.692,18.446-16.423,30.165-17.608,1.608-.161,1.625-2.7,0-2.538Z" transform="translate(-212.521 -116.982)" fill="#6c63ff"/>
      <path id="Tracciato_17" data-name="Tracciato 17" d="M689.794,275.19l8.013,9.138a1.278,1.278,0,0,0,2.115-.567c1.692-4.451,1.371-9.062,1.768-13.741a45.24,45.24,0,0,1,3.6-14.02,47.323,47.323,0,0,1,18.937-21.7c1.4-.846.118-3.046-1.278-2.191A49.685,49.685,0,0,0,703.8,253.14a48.629,48.629,0,0,0-4.231,13.428c-.846,5.491-.076,11.245-2.107,16.517l2.124-.567-7.971-9.121c-1.083-1.227-2.868.575-1.794,1.794Z" transform="translate(-212.55 -95.759)" fill="#6c63ff"/>
      <path id="Tracciato_18" data-name="Tracciato 18" d="M532.377,414.2q65.465-2,130.965-.846a1.27,1.27,0,0,0,0-2.538q-65.482-1.168-130.965.846C530.744,411.709,530.735,414.247,532.377,414.2Z" transform="translate(-188.186 -123.22)" fill="#6c63ff"/>
      <path id="Tracciato_19" data-name="Tracciato 19" d="M698.013,384.848a262.234,262.234,0,0,1,42.874,21.543c1.388.846,2.665-1.328,1.278-2.192a265.029,265.029,0,0,0-43.44-21.8c-1.515-.6-2.175,1.853-.668,2.445Z" transform="translate(-213.737 -118.9)" fill="#6c63ff"/>
      <path id="Tracciato_20" data-name="Tracciato 20" d="M725.655,371.644a103.652,103.652,0,0,0-24.885,63.062c-.068,1.633,2.471,1.633,2.538,0a100.808,100.808,0,0,1,24.14-61.269c1.058-1.235-.728-3.038-1.794-1.794Z" transform="translate(-214.285 -117.194)" fill="#6c63ff"/>
      <path id="Tracciato_21" data-name="Tracciato 21" d="M330,403.259l94.572-1.235,10.873-.144c1.955,0,3.909-.068,5.864-.076,2.75,0,4.6,2.285,4.552,5.077-.127,5.923-3.85,5.711-8.724,5.923l-11.753.533-47.857,2.107c-8.571.381-17.151.846-25.722,1.142-7.734.237-22.439-2.285-19-13.538.474-1.565-1.971-2.234-2.454-.677-1.692,5.534,1.3,11.152,6.126,14.054,6.845,4.112,15.865,2.716,23.421,2.378l58.756-2.665,14.266-.635c3.655-.169,8.741.575,12.1-1.125,3.943-1.988,4.637-9.883,2.149-13.208-1.278-1.692-3.071-1.845-5.077-1.921-5.263-.2-10.619.144-15.89.212l-29.293.389-66.938.846a1.27,1.27,0,0,0,0,2.538Z" transform="translate(-157.043 -121.497)" fill="#6c63ff"/>
      <g id="Michel" transform="translate(543.169 190.06)">
        <path id="Tracciato_22" data-name="Tracciato 22" d="M779.648,768.241c-2.132,1.337-4.569,2.09-6.769,3.266s-4.341,2.945-4.967,5.381a3.384,3.384,0,0,0,.11,2.3,4.467,4.467,0,0,0,2.369,1.878,35.952,35.952,0,0,0,28.438.322,37.472,37.472,0,0,1,4.908-1.946,31.893,31.893,0,0,1,6.287-.643,48.329,48.329,0,0,0,6.608-.846,5.813,5.813,0,0,0,3-1.244,5.559,5.559,0,0,0,1.345-3.232,26.611,26.611,0,0,0-4.231-18.852,6.37,6.37,0,0,0-1.845-1.955,7.116,7.116,0,0,0-2.936-.787c-4.231-.516-8.664-1.464-12.937-1.565-3.063-.068-4.6,1.388-6.769,3.495C787.78,758.29,785.165,764.8,779.648,768.241Z" transform="translate(-767.762 -365.584)" fill="#323444"/>
        <path id="Tracciato_23" data-name="Tracciato 23" d="M855.409,767.541c0,4.146.5,8.538,3.012,11.846a15.647,15.647,0,0,0,4.112,3.6c5.314,3.385,12.354,4.628,17.955,1.76a5.331,5.331,0,0,0,2.234-1.878c.846-1.472.4-3.308-.076-4.933L874.54,749.84c-5.238.8-12.937,1.371-17.591,4.028C853.573,755.788,855.409,763.835,855.409,767.541Z" transform="translate(-781.171 -365.51)" fill="#323444"/>
        <path id="Tracciato_24" data-name="Tracciato 24" d="M775.436,564.942c-.491,1.548-2.268,2.268-3.241,3.571-1.142,1.531-1.024,3.655-.609,5.517a14.587,14.587,0,0,0,3.714,7.319,8.775,8.775,0,0,0,7.615,2.589,6.346,6.346,0,0,0,5.17-5.694,10.783,10.783,0,0,0-.8-3.664l-5.771-16.686a.631.631,0,0,0-1.041-.457c-1.362.643-4.1,1.32-4.891,2.733S776.012,563.41,775.436,564.942Z" transform="translate(-768.305 -335.886)" fill="#fbb3b2"/>
        <path id="Tracciato_25" data-name="Tracciato 25" d="M773,562.827c2.107-.33,3.951-1.565,5.923-2.378s4.442-1.125,6.1.228c.474.389.931.922,1.548.914a60.571,60.571,0,0,0-3.791-12.049.939.939,0,0,0-.33-.465.956.956,0,0,0-.719,0l-5.694,1.489c-2.107.55-2.352.381-2.192,2.454C773.888,553.943,774.362,562.827,773,562.827Z" transform="translate(-768.568 -334.609)" fill="#323444"/>
        <path id="Tracciato_26" data-name="Tracciato 26" d="M771.641,422.879a8.02,8.02,0,0,0-.846,4.459,151.6,151.6,0,0,0,1.185,22.431c.262,1.777.592,3.554.762,5.348a61.7,61.7,0,0,1,.118,7.505l-.846,32.576c-.1,3.985-.3,8.267-2.767,11.4a5.449,5.449,0,0,0-.99,3.613c.643,8.174,2,16.28,3.342,24.36a15.053,15.053,0,0,1,13.657.652,150.323,150.323,0,0,0,7.014-41.461c.195-6.93-.1-13.9.965-20.747,1.785-11.524,1.058-23.345-.254-34.937-.415-3.672-1.295-7.454-3.647-10.3a15.611,15.611,0,0,0-8.461-4.874C777.742,422.084,774.941,422.93,771.641,422.879Z" transform="translate(-767.835 -315.15)" fill="#5b5583"/>
        <path id="Tracciato_27" data-name="Tracciato 27" d="M771.641,422.879a8.02,8.02,0,0,0-.846,4.459,151.6,151.6,0,0,0,1.185,22.431c.262,1.777.592,3.554.762,5.348a61.7,61.7,0,0,1,.118,7.505l-.846,32.576c-.1,3.985-.3,8.267-2.767,11.4a5.449,5.449,0,0,0-.99,3.613c.643,8.174,2,16.28,3.342,24.36a15.053,15.053,0,0,1,13.657.652,150.323,150.323,0,0,0,7.014-41.461c.195-6.93-.1-13.9.965-20.747,1.785-11.524,1.058-23.345-.254-34.937-.415-3.672-1.295-7.454-3.647-10.3a15.611,15.611,0,0,0-8.461-4.874C777.742,422.084,774.941,422.93,771.641,422.879Z" transform="translate(-767.835 -315.15)" opacity="0.1"/>
        <path id="Tracciato_28" data-name="Tracciato 28" d="M783.977,532.518a149.435,149.435,0,0,0,8.9,86.509,23.464,23.464,0,0,1,2.065,6.4c.465,4.146-1.447,8.131-2.538,12.142-2.538,9.121-1.075,18.835.55,28.168q1.015,5.838,2.09,11.668c.7,3.791,1.379,7.911-.381,11.347,1.515,6.312,2.411,12.565,3.926,18.877a3.587,3.587,0,0,1,.144,1.548,4.561,4.561,0,0,1-1.548,2.073,9.257,9.257,0,0,0-2.361,8.859c3.867-2.775,9.257-1.8,13.674,0s8.766,4.231,13.538,4.231c-.694-5.6-1.362-11.482.7-16.737,1.2-3.046,3.317-5.923,3.258-9.18-.059-2.919-1.845-5.525-2.276-8.411a21.29,21.29,0,0,1,.2-5.381c1.134-10.357-.152-20.815-1.438-31.155a18.615,18.615,0,0,0-1.422-5.923c-.6-1.219-1.5-2.386-1.481-3.748,0-1.582,1.278-2.868,1.751-4.375.846-2.775-.711-6.549,1.633-8.267,6.177-4.535,3.808-15.366,3.672-23.023q-.161-9.908-.846-19.8a84.336,84.336,0,0,1,4.671,34.133c-.271,3.791-.77,7.776.711,11.279,1.134,2.691,3.385,4.908,3.994,7.759a32.48,32.48,0,0,1,.195,5.373c.085,1.794.694,3.748,2.242,4.654.118,8.157.846,16.88.973,25.037a61.766,61.766,0,0,0,1.015,12.438,15.849,15.849,0,0,1,.626,4.011,16.761,16.761,0,0,1-1.337,4.933,28.286,28.286,0,0,0,4.231,26.1c2-3.545,6.16-5.424,10.221-5.72s8.072.728,12.007,1.76a23.514,23.514,0,0,1,2.809-14.3,11.7,11.7,0,0,0,1.481-3.181c.457-2.149-.609-4.29-1.185-6.414-.939-3.385-.609-7.031-.389-10.568a167.235,167.235,0,0,0-1.565-35.47,30.047,30.047,0,0,0-1.616-6.769c-.3-.778-.677-1.523-.931-2.31a18.21,18.21,0,0,1-.677-4.332l-.973-13.538c-.685-9.485,2.428-18.852,4.6-28.109.973-4.146,2.031-8.284,2.682-12.5.888-5.737,1.032-11.6,2.335-17.261,1.168-5.077,3.275-10.027,3.715-15.23.677-8.064-2.674-15.857-5.923-23.252-1.354-3.046-6.473-2.741-9.764-3.283-23.345-3.833-47.933-3.858-69.95,4.781A17.406,17.406,0,0,0,783.977,532.518Z" transform="translate(-769.831 -330.318)" fill="#3c354c"/>
        <path id="Tracciato_29" data-name="Tracciato 29" d="M803.744,355.831l2.589,10.069a26.9,26.9,0,0,1,1.159,7.116,5.255,5.255,0,0,1-.567,2.538,6.052,6.052,0,0,1-1.608,1.641c-1.769,1.345-3,4.484-5.018,5.415,1.041,1.811,2.479.635,4.358,1.54,3.308,1.608,6.338,3.918,9.925,4.713,3.385.745,6.938.042,10.3-.846,4.764-1.295,9.5-3.08,13.335-6.2s6.016-5.881,6-10.814c-4.231.5-8-3.774-9.866-7.615a20.683,20.683,0,0,1-1.422-4.561l-2.268-9.976c-2.471.542-4.484,2.31-6.845,3.232s-5.153,1.007-7.776,1.125A83.769,83.769,0,0,0,802.2,355c-.626.127-1.413.525-1.261,1.134" transform="translate(-772.768 -303.811)" fill="#fbb3b2"/>
        <path id="Tracciato_30" data-name="Tracciato 30" d="M803.744,355.831l2.589,10.069a26.9,26.9,0,0,1,1.159,7.116,5.255,5.255,0,0,1-.567,2.538,6.052,6.052,0,0,1-1.608,1.641c-1.769,1.345-3,4.484-5.018,5.415,1.041,1.811,2.479.635,4.358,1.54,3.308,1.608,6.338,3.918,9.925,4.713,3.385.745,6.938.042,10.3-.846,4.764-1.295,9.5-3.08,13.335-6.2s6.016-5.881,6-10.814c-4.231.5-8-3.774-9.866-7.615a20.683,20.683,0,0,1-1.422-4.561l-2.268-9.976c-2.471.542-4.484,2.31-6.845,3.232s-5.153,1.007-7.776,1.125A83.769,83.769,0,0,0,802.2,355c-.626.127-1.413.525-1.261,1.134" transform="translate(-772.768 -303.811)" opacity="0.1"/>
        <circle id="Ellisse_2" data-name="Ellisse 2" cx="22.406" cy="22.406" r="22.406" transform="translate(19.688 12.759)" fill="#fbb3b2"/>
        <path id="Tracciato_31" data-name="Tracciato 31" d="M820.069,377.937a20.308,20.308,0,0,1,5.077-6.769c3.156-2.767,7.471-5.009,8.216-9.138l6.837,7.962a3.68,3.68,0,0,1,.846,1.3,3.283,3.283,0,0,1-.643,2.631c-1.692,2.7-4.358,4.628-6.879,6.583a208.928,208.928,0,0,0-16.576,14.621,1.693,1.693,0,0,1-.888.542,1.6,1.6,0,0,1-.922-.262,38.49,38.49,0,0,1-11.82-9.612c-.245-.3-.55-.635-.948-.609a1.218,1.218,0,0,0-.635.33c-2.276,1.861-4.764,4.087-7.683,3.8,3.782-2.716,5.923-7.251,6.718-11.846a22.384,22.384,0,0,1,.965-4.628,4.832,4.832,0,0,1,3.3-3.131c-1.845,2.818-.584,6.811,1.9,9.087a18.682,18.682,0,0,0,8.394,4.07C818.2,383.412,819.045,380.154,820.069,377.937Z" transform="translate(-771.807 -305.839)" fill="#323444"/>
        <path id="Tracciato_32" data-name="Tracciato 32" d="M788.435,534.339c3.19.787,6.211,2.124,9.307,3.114a44.482,44.482,0,0,0,17.473,1.836,9.434,9.434,0,0,0,5.077-1.616c.4-.321.762-.7,1.185-1a8.283,8.283,0,0,1,2.276-.939c7.759-2.428,14.257-7.666,20.561-12.794.2-.169.432-.381.415-.652a.847.847,0,0,0-.254-.482L841.157,518c-8.7,1.481-17.608.922-26.433.7a38.378,38.378,0,0,0-5.432.144c-1.743.2-3.461.643-5.178,1.015-6.524,1.422-13.191,1.963-19.8,2.894a3.056,3.056,0,0,0-1.311.406,2.953,2.953,0,0,0-.7.779l-2.318,3.258a10.247,10.247,0,0,0-1.946,3.731c-.542,2.538.592,3.385,2.75,3.055A20.087,20.087,0,0,1,788.435,534.339Z" transform="translate(-769.322 -329.838)" fill="#323444"/>
        <path id="Tracciato_33" data-name="Tracciato 33" d="M813.277,392.717a41.215,41.215,0,0,0-8.724-6.811,12.362,12.362,0,0,0-4.231-1.692,5.28,5.28,0,0,0-4.332,1.066c-.753.669-1.227,1.6-1.955,2.3a9.721,9.721,0,0,1-3.1,1.751,54.932,54.932,0,0,0-10.881,6.2,24.962,24.962,0,0,0-4.933,4.552c-3.833,4.908-4.408,11.584-4.307,17.811.076,4.332,4.231,7.548,7.091,10.788a79.493,79.493,0,0,1,7.26,10.154c1.54,2.437,3.148,5.077,2.953,7.979-.161,2.378-1.548,4.611-1.328,6.981.076.846.347,1.625.423,2.445.152,1.692-.516,3.385-.685,5.077-.228,2.395.55,4.772.592,7.184a22.843,22.843,0,0,1-.626,4.9c-1.625,7.734-3.664,15.51-3.249,23.4l-4.688.846a3.96,3.96,0,0,1-.905,6.321c7.319,2.445,15.23,1.21,22.99,1.2,6.422,0,12.819.846,19.233.728s13.03-1.278,18.319-4.908c1.438-.982,2.758-2.132,4.273-2.987a21.079,21.079,0,0,1,6.473-2.115,64.227,64.227,0,0,1,12.692-1.134c2.082,0,4.349.085,6.008-1.168,1.828-1.388,2.293-3.9,2.538-6.177.245-2.4.4-4.814.44-7.226a31.157,31.157,0,0,0-.3-5.618,36.8,36.8,0,0,0-.99-4.028l-3.19-11.237c-1.32-4.637.516-9.722.905-14.528.093-1.134.11-2.454-.762-3.181-.313-.262-.745-.44-.846-.846a1.447,1.447,0,0,1,.2-1.134c1.692-3.385,4.231-6.371,6.549-9.426a192.65,192.65,0,0,0,10.831-16.643A53.552,53.552,0,0,0,868.69,381.5a15.509,15.509,0,0,0-6-4.425,17.77,17.77,0,0,0-4.772-.77c-6.634-.448-13.538-.846-19.317-4.18a3.673,3.673,0,0,0-1.379-.584c-1.278-.144-2.208,1.117-3.038,2.115-2.132,2.538-5.271,3.994-8.03,5.864C821.011,383.012,816.992,387.818,813.277,392.717Z" transform="translate(-768.231 -307.3)" fill="#5b5583"/>
        <path id="Tracciato_34" data-name="Tracciato 34" d="M898.109,423.526c1.32,4.18,1.193,8.647,1.625,13.005a50.605,50.605,0,0,0,1.379,7.793,12.438,12.438,0,0,0,1.608,3.968c.762,1.117,1.853,2.022,2.335,3.283a7.929,7.929,0,0,1,.347,2.64l.1,5.838a20.993,20.993,0,0,1-1.379,9.087l-3.647,11.093c-1.971,6.008-3.994,12.108-7.548,17.337a5,5,0,0,1-2.175,2.039,10.563,10.563,0,0,1-2.191.338,5.635,5.635,0,0,0-4.645,5.474,12.855,12.855,0,0,0-3.122-3.19l-7.421-5.923a31.718,31.718,0,0,0-8.267-5.356A22.414,22.414,0,0,0,880.7,472.119a8.461,8.461,0,0,1,.846-3.706c.618-1,1.76-1.76,1.845-2.936.1-1.481-1.574-2.6-1.574-4.078,0-.982.728-1.794,1.049-2.716a6.819,6.819,0,0,0,0-3.478l-1.024-5.686a4.341,4.341,0,0,0-.508-1.625,10.505,10.505,0,0,0-1.269-1.337c-1.76-1.971-.981-5.077,0-7.505a71.735,71.735,0,0,1,8.648-15.171,51.882,51.882,0,0,0,3.444-4.924c.9-1.557,1.1-3.715,2.048-5.077C895.419,417.078,897.068,420.234,898.109,423.526Z" transform="translate(-782.74 -313.817)" fill="#5b5583"/>
        <path id="Tracciato_35" data-name="Tracciato 35" d="M863.928,505.239a4.074,4.074,0,0,0-.965,1.015,8.555,8.555,0,0,1-3.833,2.733c.846.609,1.616,1.21,2.411,1.828a105.663,105.663,0,0,1,16.077,15.374c.533-1.9,3.723-1.768,4.5-3.588a3.511,3.511,0,0,0,.169-1.625,49.557,49.557,0,0,0-1.218-8.461,9.578,9.578,0,0,0-1.692-3.96,10.153,10.153,0,0,0-4.789-2.708C871.924,504.917,866.635,503.606,863.928,505.239Z" transform="translate(-781.82 -327.755)" fill="#323444"/>
        <path id="Tracciato_36" data-name="Tracciato 36" d="M849.812,512.748c-2.538,1.878-4.764,4.231-7.615,5.517-2.014.914-4.307,1.312-6.067,2.674a6.029,6.029,0,0,0,5.754,3.114,13.674,13.674,0,0,0,6.439-2.361c1.515-.931,3.292-2.014,4.941-1.362.254,1.286-.846,2.5-.846,3.8s1.083,2.251,2.149,2.936c5.077,3.275,11.609,3,17.659,2.623a1.591,1.591,0,0,0,.973-.288,1.532,1.532,0,0,0,.364-1.117c.076-1.337.11-2.665.119-4a5.737,5.737,0,0,0-2.454-5.652,69.056,69.056,0,0,0-10.577-7.488C856.928,508.983,853.154,510.26,849.812,512.748Z" transform="translate(-778.281 -328.613)" fill="#fbb3b2"/>
        <path id="Tracciato_37" data-name="Tracciato 37" d="M825.693,326.1c-3.757.448-6.49,3.385-6.109,6.574s3.731,5.39,7.488,4.933,6.49-3.385,6.109-6.566S829.449,325.651,825.693,326.1Zm1.278,10.627c-3.181.381-6.016-1.489-6.346-4.18s2-5.178,5.17-5.559,6.016,1.489,6.346,4.18-2,5.178-5.17,5.559Z" transform="translate(-775.73 -300.302)" fill="#3c354c"/>
        <path id="Tracciato_38" data-name="Tracciato 38" d="M804.053,328.7c-3.757.448-6.49,3.385-6.109,6.566s3.731,5.39,7.488,4.941,6.49-3.385,6.109-6.574S807.81,328.251,804.053,328.7Zm1.278,10.619c-3.181.381-6.016-1.489-6.338-4.171s1.988-5.178,5.17-5.568,6.016,1.489,6.338,4.18-2,5.178-5.17,5.559Z" transform="translate(-772.4 -300.702)" fill="#3c354c"/>
        <path id="Tracciato_39" data-name="Tracciato 39" d="M663.219,259.64l8.165,1.743-.8,2.149-7.7-2.259Z" transform="translate(-645.164 -230.009)" fill="#3c354c"/>
        <path id="Tracciato_40" data-name="Tracciato 40" d="M715.7,253.18l-7.531,3.63,1.295,1.9,6.947-4.019Z" transform="translate(-652.132 -229.015)" fill="#3c354c"/>
        <path id="Tracciato_41" data-name="Tracciato 41" d="M687.31,260.935l5.728-.685-.3,1.422-4.916.33Z" transform="translate(-648.922 -230.103)" fill="#3c354c"/>
        <path id="Tracciato_42" data-name="Tracciato 42" d="M797.471,324.533a9.088,9.088,0,0,0,.846-3.7,7.9,7.9,0,0,1,.389-2.251,6.3,6.3,0,0,1,1.845-2.361,17.065,17.065,0,0,1,10.154-3.545,23.473,23.473,0,0,1,11.744,2.538,9.137,9.137,0,0,1,2.919,2.166c1.185,1.447,1.438,3.317,2.631,4.747a6.913,6.913,0,0,0,6.481,2.031c.415-1.472-.127-3.029.085-4.535a21.943,21.943,0,0,1,1.345-3.757c1.312-3.867-.6-8.351-4.544-10.661-1.379-.846-3.012-1.4-4.045-2.538s-1.278-2.327-1.988-3.469c-1.887-3.021-6.769-4.434-10.484-3.038-1.168.44-2.2,1.108-3.385,1.582a27.9,27.9,0,0,1-7.124,1.371,21.821,21.821,0,0,0-6.9,1.811,7.732,7.732,0,0,0-4.324,4.671c-.229.914-.178,1.862-.406,2.767-1.168,4.595-8.707,6.828-9.13,11.516a6.721,6.721,0,0,0,1.921,4.7c.8.939,2.7,3.452,4.045,3.816s2.369-.914,3.655-1.354C795.228,326.4,796.455,326.267,797.471,324.533Z" transform="translate(-770.193 -295.621)" fill="#cbceda"/>
      </g>
      <path id="Tracciato_43" data-name="Tracciato 43" d="M912.81,682c0,42.51,26.67,76.914,59.627,76.914" transform="translate(-246.911 -165.012)" fill="#46455b"/>
      <path id="Tracciato_44" data-name="Tracciato 44" d="M983.28,758.767c0-42.992,29.767-77.777,66.548-77.777" transform="translate(-257.754 -164.857)" fill="#6c63ff"/>
      <path id="Tracciato_45" data-name="Tracciato 45" d="M938.35,686.56c0,40.386,17.007,73.064,38.017,73.064" transform="translate(-250.841 -165.714)" fill="#6c63ff"/>
      <path id="Tracciato_46" data-name="Tracciato 46" d="M983.28,754.837c0-54.931,34.4-99.387,76.914-99.387" transform="translate(-257.754 -160.927)" fill="#46455b"/>
      <ellipse id="Ellisse_3" data-name="Ellisse 3" cx="14.824" cy="2.505" rx="14.824" ry="2.505" transform="translate(708.121 603.589)" fill="#6c63ff" opacity="0.1"/>
      <path id="Tracciato_47" data-name="Tracciato 47" d="M968.46,772.719s8.461-.262,11-2.073,13.005-3.985,13.64-1.075,12.692,14.477,3.156,14.554-22.186-1.489-24.724-3.038S968.46,772.719,968.46,772.719Z" transform="translate(-255.474 -178.268)" fill="#a8a8a8"/>
      <path id="Tracciato_48" data-name="Tracciato 48" d="M996.433,783.939c-9.544.076-22.177-1.489-24.724-3.038-1.938-1.176-2.708-5.415-2.97-7.361h-.279s.533,6.82,3.08,8.368,15.18,3.114,24.724,3.038c2.758,0,3.706-1.007,3.655-2.454C999.539,783.372,998.532,783.922,996.433,783.939Z" transform="translate(-255.474 -179.097)" opacity="0.2"/>
      <path id="Tracciato_49" data-name="Tracciato 49" d="M148.31,711.36c0,33.845,21.213,61.192,47.434,61.192" transform="translate(-129.28 -169.53)" fill="#46455b"/>
      <path id="Tracciato_50" data-name="Tracciato 50" d="M204.37,772.428c0-34.2,23.692-61.878,52.943-61.878" transform="translate(-137.906 -169.405)" fill="#6c63ff"/>
      <path id="Tracciato_51" data-name="Tracciato 51" d="M168.62,715c0,32.153,13.538,58.129,30.249,58.129" transform="translate(-132.405 -170.09)" fill="#6c63ff"/>
      <path id="Tracciato_52" data-name="Tracciato 52" d="M204.37,769.3c0-43.7,27.372-79.071,61.192-79.071" transform="translate(-137.906 -166.279)" fill="#46455b"/>
      <ellipse id="Ellisse_4" data-name="Ellisse 4" cx="11.795" cy="1.997" rx="11.795" ry="1.997" transform="translate(52.613 610.722)" fill="#6c63ff" opacity="0.1"/>
      <path id="Tracciato_53" data-name="Tracciato 53" d="M192.58,783.52s6.727-.212,8.749-1.692,10.357-3.173,10.856-.846,10.111,11.516,2.538,11.575-17.65-1.185-19.673-2.411S192.58,783.52,192.58,783.52Z" transform="translate(-136.092 -180.066)" fill="#a8a8a8"/>
      <path id="Tracciato_54" data-name="Tracciato 54" d="M214.833,792.5c-7.615.059-17.65-1.185-19.673-2.42-1.54-.931-2.149-4.307-2.361-5.855h-.22s.423,5.424,2.445,6.659,12.083,2.471,19.673,2.411c2.191,0,2.953-.8,2.911-1.955C217.3,792.013,216.466,792.444,214.833,792.5Z" transform="translate(-136.092 -180.741)" opacity="0.2"/>
    </g>
  </g>
</svg>
