<svg xmlns="http://www.w3.org/2000/svg" width="362.844" height="260.808" viewBox="0 0 362.844 260.808">
  <g id="undraw_teaching_f1cm" transform="translate(0 -64.585)">
    <rect id="Rettangolo_1" data-name="Rettangolo 1" width="32.904" height="9.948" rx="4.974" transform="translate(74.175 85.12)" fill="#6c63ff" opacity="0.1"/>
    <rect id="Rettangolo_2" data-name="Rettangolo 2" width="32.904" height="9.948" rx="4.974" transform="translate(108.609 95.067)" fill="#6c63ff" opacity="0.1"/>
    <rect id="Rettangolo_3" data-name="Rettangolo 3" width="32.904" height="9.948" rx="4.974" transform="translate(143.043 105.015)" fill="#6c63ff" opacity="0.1"/>
    <rect id="Rettangolo_6" data-name="Rettangolo 6" width="32.904" height="9.948" rx="4.974" transform="translate(143.043 90.093)" fill="#6c63ff" opacity="0.1"/>
    <rect id="Rettangolo_7" data-name="Rettangolo 7" width="32.904" height="9.948" rx="4.974" transform="translate(181.303 85.12)" fill="#6c63ff" opacity="0.1"/>
    <rect id="Rettangolo_8" data-name="Rettangolo 8" width="32.904" height="9.948" rx="4.974" transform="translate(215.738 95.067)" fill="#6c63ff" opacity="0.1"/>
    <rect id="Rettangolo_9" data-name="Rettangolo 9" width="32.904" height="9.948" rx="4.974" transform="translate(250.172 105.015)" fill="#6c63ff" opacity="0.1"/>
    <rect id="Rettangolo_12" data-name="Rettangolo 12" width="32.904" height="9.948" rx="4.974" transform="translate(250.172 90.093)" fill="#6c63ff" opacity="0.1"/>
    <rect id="Rettangolo_33" data-name="Rettangolo 33" width="32.904" height="9.948" rx="4.974" transform="translate(250.172 282.159)" fill="#6c63ff" opacity="0.1"/>
    <rect id="Rettangolo_36" data-name="Rettangolo 36" width="32.904" height="9.948" rx="4.974" transform="translate(250.172 267.238)" fill="#6c63ff" opacity="0.1"/>
    <rect id="Rettangolo_40" data-name="Rettangolo 40" width="32.904" height="9.948" rx="4.974" transform="translate(74.175 212.526)" fill="#6c63ff" opacity="0.1"/>
    <rect id="Rettangolo_41" data-name="Rettangolo 41" width="32.904" height="9.948" rx="4.974" transform="translate(108.609 222.474)" fill="#6c63ff" opacity="0.1"/>
    <rect id="Rettangolo_45" data-name="Rettangolo 45" width="32.904" height="9.948" rx="4.974" transform="translate(250.172 247.343)" fill="#6c63ff" opacity="0.1"/>
    <rect id="Rettangolo_46" data-name="Rettangolo 46" width="32.904" height="9.948" rx="4.974" transform="translate(181.303 212.526)" fill="#6c63ff" opacity="0.1"/>
    <rect id="Rettangolo_48" data-name="Rettangolo 48" width="32.904" height="9.948" rx="4.974" transform="translate(250.172 232.421)" fill="#6c63ff" opacity="0.1"/>
    <ellipse id="Ellisse_1" data-name="Ellisse 1" cx="167.771" cy="13.774" rx="167.771" ry="13.774" transform="translate(16.785 297.846)" fill="#6c63ff" opacity="0.1"/>
    <path id="Tracciato_2" data-name="Tracciato 2" d="M158.207,250.58c15.821,6.856,24.911,21.043,24.911,21.043s-16.563,3.061-32.387-3.792-24.911-21.043-24.911-21.043S142.383,243.724,158.207,250.58Z" transform="translate(-125.82 -143.728)" fill="#6c63ff"/>
    <path id="Tracciato_3" data-name="Tracciato 3" d="M330.1,169.861A33.827,33.827,0,0,1,343.323,158a34.084,34.084,0,0,1-4.5,17.171,33.744,33.744,0,0,1-13.23,11.834A33.765,33.765,0,0,1,330.1,169.861Z" transform="translate(-249.157 -89.332)" fill="#6c63ff"/>
    <path id="Tracciato_4" data-name="Tracciato 4" d="M241.019,171.87c3.5,12.5,13.15,20.722,13.15,20.722s3.975-12.04.474-24.54S241.49,147.33,241.49,147.33,237.515,159.37,241.019,171.87Z" transform="translate(-196.052 -82.745)" fill="#46455b"/>
    <rect id="Rettangolo_49" data-name="Rettangolo 49" width="278.916" height="139.65" rx="7.21" transform="translate(45.48 88.563)" fill="#3f3d56"/>
    <path id="Tracciato_5" data-name="Tracciato 5" d="M118.87,482H397.787v5.659a2.759,2.759,0,0,1-2.759,2.759h-273.4a2.759,2.759,0,0,1-2.759-2.759Z" transform="translate(-73.39 -262.205)" opacity="0.1"/>
    <rect id="Rettangolo_50" data-name="Rettangolo 50" width="20.66" height="10.33" rx="2.5" transform="translate(72.645 209.465)" fill="#6c63ff"/>
    <rect id="Rettangolo_51" data-name="Rettangolo 51" width="14.156" height="1.53" rx="0.765" transform="translate(99.044 218.265)" fill="#6c63ff"/>
    <path id="Tracciato_6" data-name="Tracciato 6" d="M315.241,270.781c10.1,1.863,20.4,0,30.451-1.263l30.558-3.826c1.236-.157,3.034-.9,3.761.616.409.846.134,2.678.165,3.65.08,2.678.073,5.356,0,8.035-.138,5.119-.513,10.227-.991,15.323-.93,9.974-2.246,19.9-2.9,29.908-.337,5.1-.505,10.208-.356,15.3.034,1.217.084,2.433.157,3.646.08,1.358.689,3.375-.792,4.281-.846.52-2.51.494-3.478.647-1.53.241-3.061.432-4.622.589-10.288,1.029-20.71.6-31.037.539l-31.182-.161-7.606-.042c-.689,0-3.172.413-3.6-.406a8.1,8.1,0,0,1,.383-2.414q.176-1.079.383-2.154c.888-5.031,1.936-10.032,2.992-15.029,2.269-10.713,4.591-21.479,5.525-32.422.463-5.49.157-11.03.723-16.509.264-2.544.578-8.222,3.964-8.448,2.87-.191,5.823,0,8.7,0a.574.574,0,1,0,0-1.148c-2.716,0-5.437-.073-8.153-.019-1.806.034-3.061.463-3.922,2.123-2.2,4.262-1.974,9.948-2.043,14.6-.165,11.138-1.875,22.038-4.1,32.931-1.121,5.483-2.33,10.946-3.443,16.433-.524,2.621-1.025,5.249-1.484,7.885-.214,1.255-1.3,4.021-.344,5.173s3.883.532,5.2.539l9.129.054,17.493.1c11.3.065,22.642.383,33.941.05,5.395-.161,11.1-.383,16.349-1.672a2.618,2.618,0,0,0,2.38-2.77c.092-2.586-.329-5.253-.383-7.851-.383-22.229,4.84-44.148,4.3-66.385-.034-1.511.536-5.322-1.117-6.236a4.174,4.174,0,0,0-2.487-.1c-1.492.172-2.98.383-4.473.559L353.9,267.334c-6.194.765-12.385,1.592-18.591,2.3-6.569.765-13.2,1.22-19.75,0-.723-.134-1.033.972-.306,1.106Z" transform="translate(-228.765 -154.908)" fill="#6c63ff"/>
    <path id="Tracciato_7" data-name="Tracciato 7" d="M319.109,308.826l76.451-3.749c.738-.038.742-1.186,0-1.148l-76.451,3.75C318.374,307.712,318.37,308.86,319.109,308.826Z" transform="translate(-244.815 -179.428)" fill="#6c63ff"/>
    <path id="Tracciato_8" data-name="Tracciato 8" d="M380.718,286.032a1.913,1.913,0,0,0,.677,3.088,5.028,5.028,0,0,0,3.26-.18c1.53-.383,3.061-.723,4.633-1a63.187,63.187,0,0,1,10.365-.964c1.584-.019,3.156.054,4.74.122a5.12,5.12,0,0,0,3.355-.574,2.166,2.166,0,0,0,.383-3.382c-1.53-1.4-4.828-.585-6.6-.44a147.918,147.918,0,0,0-19.077,2.847c-.719.153-.417,1.263.306,1.106q6.225-1.343,12.546-2.158,3.107-.383,6.225-.647c.979-.08,1.959-.153,2.938-.21.383-.023.788-.065,1.178-.054,1.213.027,1.354-.191.627,1.274-.647,1.3-.44,1.148-1.561,1.106-.474,0-.949-.054-1.423-.077q-1.458-.061-2.915-.065-3.1,0-6.19.3c-1.745.168-3.486.406-5.211.712-1.079.191-2.15.413-3.218.658-.471.111-.945.226-1.416.344-.226.061-.455.115-.681.172q-1.255.436-2.139-1.148c.513-.532-.295-1.347-.811-.811Z" transform="translate(-282.872 -166.095)" fill="#6c63ff"/>
    <path id="Tracciato_9" data-name="Tracciato 9" d="M388.347,333.254c-5.536-.214-11.516,1.282-15.162,5.739-2.854,3.485-4.48,9.466-1.458,13.391,3.248,4.209,10.372,3.466,14.669,1.672,4.545-1.913,9.519-5.858,10.885-10.793,1.7-6.164-3.826-10.824-9.584-10.893a.574.574,0,0,0,0,1.148c3.283.038,6.5,1.446,8.035,4.5,1.6,3.222.222,6.6-1.913,9.182-3.421,4.105-8.769,7.2-14.217,7.113-3.271-.05-6.887-1.171-7.9-4.622a10.682,10.682,0,0,1,1.255-8.333c3.145-5.356,9.546-7.17,15.415-6.94.738.027.738-1.121,0-1.148Z" transform="translate(-276.642 -196.988)" fill="#6c63ff"/>
    <path id="Tracciato_10" data-name="Tracciato 10" d="M400.165,350.715a1.492,1.492,0,0,0-2,1.53c.115,1.492,1.76,1.913,3,1.825,1.067-.092,2.315-.486,1.94-1.821a1.714,1.714,0,0,0-.934-1.079,2.162,2.162,0,0,0-1.079-.134c-.142,0-1.439.474-.888-.1l-.9-.119a.941.941,0,0,1,.275.765.578.578,0,0,0,.861.494.765.765,0,0,1,1.037.9.578.578,0,0,0,1.048.444c.383-.689.846-2.058.272-2.778a1.225,1.225,0,0,0-1.58-.057,5.538,5.538,0,0,0-.788.677c-.463.409-.765.6-.593-.184a4.961,4.961,0,0,1,2.892-3.134l-.842-.647a12.1,12.1,0,0,1-2.315,4.534l.979.406a2.556,2.556,0,0,1,1.561-2.491h-.562l.3.49c-.111.723.995,1.033,1.106.3.145-.945-.451-2.173-1.557-1.71a3.6,3.6,0,0,0-1.978,3.409c0,.459.65.815.983.409A13.49,13.49,0,0,0,403,347.6a.582.582,0,0,0-.846-.647,6.417,6.417,0,0,0-2.785,2.426c-.467.765-1.052,1.959-.578,2.839a1.217,1.217,0,0,0,1.664.471,4.477,4.477,0,0,0,.96-.765c.142-.126.3-.344.486-.383.168-.115.161-.05-.027.2a2.086,2.086,0,0,1-.333,1.117l1.048.44a1.913,1.913,0,0,0-2.72-2.192l.865.5a2.085,2.085,0,0,0-.432-1.351.582.582,0,0,0-.9-.119,1.5,1.5,0,0,0,.038,2.223c.547.417.815,0,1.416-.1,2.039-.264.849.654.13.685a2.715,2.715,0,0,1-.96-.069q-1.2-.406-.149-1.045c.685.279.979-.83.306-1.106Z" transform="translate(-293.959 -205.947)" fill="#6c63ff"/>
    <path id="Tracciato_11" data-name="Tracciato 11" d="M391.792,361.24c.471,1.53-1.473,2.035-2.4,2.563a5.334,5.334,0,0,0-1.657,1.45,11.078,11.078,0,0,0-1.641,4.488c-.145.723.96,1.029,1.11.306a13.009,13.009,0,0,1,.968-3.3c.689-1.37,1.676-1.829,2.961-2.533s2.215-1.794,1.76-3.279c-.214-.7-1.324-.4-1.106.306Z" transform="translate(-286.508 -214.376)" fill="#6c63ff"/>
    <path id="Tracciato_12" data-name="Tracciato 12" d="M396.126,360.37a1.11,1.11,0,0,0-.956,1.148c0,.455.3.746.509,1.11a8.764,8.764,0,0,1,1.11,2.414,5.21,5.21,0,0,1-.065,3.061c-.792,1.419-2.223,1.148-3.443,1.148-1.148,0-2.035.383-2-1.217a5.089,5.089,0,0,1,1.148-2.518l-1.048-.138a20,20,0,0,1,.348,3.543c0,.532.815.826,1.067.287a22.166,22.166,0,0,0,1.458-4.033l-1.129-.153.2,2.908a.578.578,0,0,0,1.067.291,1.3,1.3,0,0,0,.287-.517c.038-.18-.314-1.393-.455-.96l1.125.153.08-2.762-1.148.153a5.716,5.716,0,0,1,.214,2.41c-.073.639,1,.784,1.148.153l.719-3.711-1.048.134a2.536,2.536,0,0,1,.2,1.653c-.084.735,1.064.727,1.148,0a4.033,4.033,0,0,0-.352-2.231.578.578,0,0,0-1.048.138l-.723,3.711,1.129.153a6.258,6.258,0,0,0-.256-2.713.574.574,0,0,0-1.125.149l-.08,2.762a.577.577,0,0,0,1.129.153l.061-.187a.582.582,0,0,0-.145-.559c-1.19-1.293-1.431.765-1.844,1.335l1.071.291-.2-2.908a.578.578,0,0,0-1.129-.153,20.574,20.574,0,0,1-1.339,3.761l1.071.291a21.636,21.636,0,0,0-.383-3.849c-.1-.528-.792-.505-1.048-.138-.765,1.1-2.089,3.508-1.067,4.828.891,1.148,3.7.7,4.893.631,1.89-.107,2.575-1.3,2.782-3.088a7.56,7.56,0,0,0-.142-2.556c-.1-.451-1.148-3.313-1.462-3.256.727-.134.417-1.243-.306-1.11Z" transform="translate(-288.929 -214.275)" fill="#6c63ff"/>
    <path id="Tracciato_13" data-name="Tracciato 13" d="M394.749,364.56l-3.133,4.136.991.578,2.3-3.321-1.048-.444-1.144,4.365a.578.578,0,0,0,1.048.444,20.171,20.171,0,0,1,1.748-2.46l-.956-.559a6.248,6.248,0,0,1-1.442,2.651l.96.559a5.125,5.125,0,0,1,.417-1.53c.295-.662-.639-1.247-.991-.582a13.469,13.469,0,0,1-1.106,1.737l1.048.138.233-1.09-1.048-.138.168.956a.578.578,0,0,0,.96.253,11.425,11.425,0,0,0,2.3-3.463h-.987a5.153,5.153,0,0,1,.539,1.53c.138.689,1.052.432,1.125-.153a31.105,31.105,0,0,0,.253-3.864h-1.148v2.407c0,.624,1.022.807,1.129.153a4.384,4.384,0,0,1,.562-1.645h-1.006a2.552,2.552,0,0,1,.383,1.3.574.574,0,0,0,1.148,0l.145-.765h-1.106c.111.677.532,4.492-.964,4.044-.253-.061-.325-.046-.218.042l.341-.727.8-1.695-1.071-.291a4.2,4.2,0,0,1-.333,2.586,1.982,1.982,0,0,1-2.162.444,3.827,3.827,0,0,1-1-1.048l-.784.765c.635.463,1.664,1.6,2.483,1.664.624.05,1.148-.467,1.557-.88a6.669,6.669,0,0,0,1.871-4.909.574.574,0,0,0-1.148,0v1.309a.574.574,0,1,0,1.148,0v-3.21a.574.574,0,0,0-1.148,0,13.784,13.784,0,0,1-.2,2.3l1.129.153a26.437,26.437,0,0,1-.126-2.751.574.574,0,0,0-1.125-.153c-.172.731-.383,1.45-.585,2.165l1.048-.138-.08-.306c-.054-.731-1.2-.735-1.148,0a2.1,2.1,0,0,0,.237.888.58.58,0,0,0,1.048-.138c.218-.719.413-1.439.585-2.166l-1.129-.153a26.428,26.428,0,0,0,.126,2.751c.057.589,1.006.842,1.125.153a15.813,15.813,0,0,0,.241-2.617h-1.148v3.21H397.6v-1.308h-1.148a5.517,5.517,0,0,1-1.4,3.933,4.711,4.711,0,0,1-.482.474c-.272.26-.52.222-.738-.119a9.565,9.565,0,0,1-1.58-1.148c-.474-.341-1.125.333-.788.784.88,1.171,2.192,2.475,3.826,1.913,1.718-.608,1.951-2.935,1.821-4.465-.042-.509-.8-.853-1.068-.287-.383.807-.765,1.611-1.148,2.422a2.14,2.14,0,0,0-.344,1.01c.126.861,1.171.719,1.814.67,2.491-.187,2.1-3.719,1.81-5.494-.1-.589-.953-.5-1.106,0a3.377,3.377,0,0,0-.187,1.087h1.148a4.549,4.549,0,0,0-.54-1.879.578.578,0,0,0-.991,0,5.579,5.579,0,0,0-.681,1.913l1.148.153V364.3a.574.574,0,0,0-1.148,0,31.1,31.1,0,0,1-.253,3.864l1.129-.153a6.572,6.572,0,0,0-.654-1.791.578.578,0,0,0-.991,0,10.468,10.468,0,0,1-2.116,3.229l.96.253-.168-.957c-.088-.509-.807-.524-1.048-.138a2.518,2.518,0,0,0-.348,1.974c.1.543.784.486,1.048.138a13.433,13.433,0,0,0,1.106-1.733l-.991-.582a6.528,6.528,0,0,0-.536,1.8c-.069.505.532,1.033.96.559a7.652,7.652,0,0,0,1.737-3.16c.142-.52-.578-1.014-.96-.559a21.918,21.918,0,0,0-1.913,2.678l1.048.444,1.167-4.35a.578.578,0,0,0-1.048-.444l-2.3,3.325c-.429.616.555,1.148.991.578l3.122-4.132c.444-.589-.551-1.148-.991-.582Z" transform="translate(-289.774 -215.886)" fill="#6c63ff"/>
    <path id="Tracciato_14" data-name="Tracciato 14" d="M526.373,338.041c4.591-2.808,8.241-7,12.3-10.5,4.4-3.8,9.018-7.338,13.774-10.69,9.236-6.5,18.935-12.324,28.626-18.128a.574.574,0,0,0-.578-.991c-9.691,5.8-19.394,11.612-28.63,18.128-4.358,3.061-8.612,6.305-12.691,9.749-4.438,3.75-8.39,8.417-13.391,11.444-.631.383-.054,1.377.578.991Z" transform="translate(-372.586 -175.559)" fill="#6c63ff"/>
    <path id="Tracciato_15" data-name="Tracciato 15" d="M684.665,253.845c-4.974.505-10.33,1.771-13.391,6.122-2.644,3.742-2.586,10.269-.1,14.11,2.82,4.365,8.582,4.522,13.058,3.111s9.11-3.887,9.068-9.236a22.322,22.322,0,0,0-2.2-8.459c-.987-2.246-2.736-4.209-5.383-3.96-.731.069-.738,1.217,0,1.148,3.547-.329,4.687,3.883,5.529,6.542.765,2.483,1.473,5.421.272,7.889s-4.1,3.727-6.573,4.629a13.748,13.748,0,0,1-8.417.765c-5.54-1.55-7.07-8.57-5.475-13.552,1.837-5.739,8.341-7.426,13.64-7.962.727-.073.735-1.221,0-1.148Z" transform="translate(-461.364 -148.505)" fill="#6c63ff"/>
    <path id="Tracciato_16" data-name="Tracciato 16" d="M704.665,369.845c-4.974.505-10.33,1.771-13.391,6.122-2.644,3.742-2.586,10.269-.1,14.11,2.82,4.366,8.582,4.522,13.058,3.111s9.11-3.887,9.068-9.236a22.321,22.321,0,0,0-2.2-8.459c-.987-2.246-2.736-4.209-5.383-3.96-.731.069-.738,1.217,0,1.148,3.547-.329,4.687,3.883,5.529,6.542.765,2.483,1.473,5.422.272,7.889s-4.1,3.727-6.573,4.629a13.748,13.748,0,0,1-8.417.765c-5.54-1.55-7.07-8.57-5.475-13.552,1.837-5.739,8.341-7.426,13.64-7.962.727-.073.735-1.22,0-1.148Z" transform="translate(-473.712 -220.123)" fill="#6c63ff"/>
    <path id="Tracciato_17" data-name="Tracciato 17" d="M689.626,251.481l3.623,4.132a.578.578,0,0,0,.957-.256c.765-2.012.62-4.1.8-6.213a20.455,20.455,0,0,1,1.626-6.34,21.4,21.4,0,0,1,8.563-9.814c.631-.383.054-1.377-.578-.991a22.466,22.466,0,0,0-8.658,9.511,21.989,21.989,0,0,0-1.913,6.072c-.383,2.483-.034,5.085-.953,7.468l.96-.256-3.6-4.124c-.49-.555-1.3.26-.811.811Z" transform="translate(-473.828 -134.965)" fill="#6c63ff"/>
    <path id="Tracciato_18" data-name="Tracciato 18" d="M531.7,412.108q29.6-.9,59.219-.383a.574.574,0,0,0,0-1.148q-29.61-.528-59.219.383C530.966,410.983,530.962,412.131,531.7,412.108Z" transform="translate(-376.069 -245.154)" fill="#6c63ff"/>
    <path id="Tracciato_19" data-name="Tracciato 19" d="M697.569,383.457a118.572,118.572,0,0,1,19.386,9.741c.628.383,1.205-.6.578-.991a119.837,119.837,0,0,0-19.643-9.856c-.685-.272-.983.838-.3,1.106Z" transform="translate(-478.591 -227.82)" fill="#6c63ff"/>
    <path id="Tracciato_20" data-name="Tracciato 20" d="M712.021,371.414a46.869,46.869,0,0,0-11.252,28.515c-.031.738,1.117.738,1.148,0a45.583,45.583,0,0,1,10.916-27.7C713.311,371.667,712.5,370.852,712.021,371.414Z" transform="translate(-480.792 -220.977)" fill="#6c63ff"/>
    <path id="Tracciato_21" data-name="Tracciato 21" d="M329.312,401.028l42.763-.559,4.916-.065c.884,0,1.768-.031,2.651-.034a2.109,2.109,0,0,1,2.058,2.3c-.057,2.678-1.741,2.583-3.945,2.678l-5.314.241-21.64.953c-3.876.172-7.755.383-11.631.517-3.5.107-10.147-1.033-8.593-6.122.214-.708-.891-1.01-1.11-.306a5.639,5.639,0,0,0,2.77,6.355c3.1,1.859,7.174,1.228,10.59,1.075l26.568-1.205,6.451-.287c1.653-.077,3.952.26,5.471-.509,1.783-.9,2.1-4.469.972-5.972a2.66,2.66,0,0,0-2.3-.869c-2.38-.092-4.8.065-7.185.1l-13.246.176-30.268.383a.574.574,0,0,0,0,1.148Z" transform="translate(-251.104 -238.24)" fill="#6c63ff"/>
    <g id="Michel" transform="translate(245.608 121.322)">
      <path id="Tracciato_22" data-name="Tracciato 22" d="M773.137,758.422c-.964.6-2.066.945-3.061,1.477a4.188,4.188,0,0,0-2.246,2.433,1.53,1.53,0,0,0,.05,1.041,2.02,2.02,0,0,0,1.071.849,16.256,16.256,0,0,0,12.859.145,16.946,16.946,0,0,1,2.219-.88,14.42,14.42,0,0,1,2.843-.291,21.874,21.874,0,0,0,2.988-.383,2.629,2.629,0,0,0,1.354-.562,2.513,2.513,0,0,0,.608-1.461,12.033,12.033,0,0,0-1.913-8.524,2.88,2.88,0,0,0-.834-.884,3.217,3.217,0,0,0-1.328-.356c-1.913-.233-3.918-.662-5.85-.708-1.385-.031-2.081.627-3.061,1.58C776.814,753.922,775.631,756.865,773.137,758.422Z" transform="translate(-767.762 -576.35)" fill="#323444"/>
      <path id="Tracciato_23" data-name="Tracciato 23" d="M855.136,757.844A8.746,8.746,0,0,0,856.5,763.2a7.075,7.075,0,0,0,1.859,1.626c2.4,1.53,5.586,2.093,8.119.8a2.411,2.411,0,0,0,1.01-.849,2.9,2.9,0,0,0-.034-2.231l-3.665-12.7c-2.368.364-5.85.62-7.954,1.821C854.306,752.53,855.136,756.168,855.136,757.844Z" transform="translate(-821.568 -576.055)" fill="#323444"/>
      <path id="Tracciato_24" data-name="Tracciato 24" d="M773.166,560.759c-.222.7-1.025,1.025-1.465,1.615a3.065,3.065,0,0,0-.275,2.495,6.6,6.6,0,0,0,1.68,3.31,3.968,3.968,0,0,0,3.443,1.171,2.869,2.869,0,0,0,2.338-2.575,4.874,4.874,0,0,0-.36-1.657l-2.609-7.545a.285.285,0,0,0-.471-.206c-.616.291-1.852.6-2.211,1.236S773.426,560.066,773.166,560.759Z" transform="translate(-769.942 -457.185)" fill="#fbb3b2"/>
      <path id="Tracciato_25" data-name="Tracciato 25" d="M773,555.256a12.368,12.368,0,0,0,2.678-1.075,2.764,2.764,0,0,1,2.759.1c.214.176.421.417.7.413a27.391,27.391,0,0,0-1.714-5.448.425.425,0,0,0-.149-.211.433.433,0,0,0-.325,0l-2.575.673c-.953.249-1.064.172-.991,1.11C773.4,551.239,773.616,555.256,773,555.256Z" transform="translate(-770.996 -452.061)" fill="#323444"/>
      <path id="Tracciato_26" data-name="Tracciato 26" d="M769.777,422.7a3.626,3.626,0,0,0-.383,2.016,68.541,68.541,0,0,0,.536,10.143c.119.8.268,1.607.344,2.418a27.885,27.885,0,0,1,.054,3.394l-.383,14.73c-.046,1.8-.138,3.738-1.251,5.154a2.465,2.465,0,0,0-.448,1.634c.291,3.7.9,7.361,1.511,11.015a6.807,6.807,0,0,1,6.175.295,67.975,67.975,0,0,0,3.172-18.747,74.431,74.431,0,0,1,.436-9.381,59.685,59.685,0,0,0-.115-15.8,8.731,8.731,0,0,0-1.649-4.656,7.059,7.059,0,0,0-3.826-2.2C772.535,422.336,771.269,422.719,769.777,422.7Z" transform="translate(-768.056 -373.983)" fill="#5b5583"/>
      <path id="Tracciato_27" data-name="Tracciato 27" d="M769.777,422.7a3.626,3.626,0,0,0-.383,2.016,68.541,68.541,0,0,0,.536,10.143c.119.8.268,1.607.344,2.418a27.885,27.885,0,0,1,.054,3.394l-.383,14.73c-.046,1.8-.138,3.738-1.251,5.154a2.465,2.465,0,0,0-.448,1.634c.291,3.7.9,7.361,1.511,11.015a6.807,6.807,0,0,1,6.175.295,67.975,67.975,0,0,0,3.172-18.747,74.431,74.431,0,0,1,.436-9.381,59.685,59.685,0,0,0-.115-15.8,8.731,8.731,0,0,0-1.649-4.656,7.059,7.059,0,0,0-3.826-2.2C772.535,422.336,771.269,422.719,769.777,422.7Z" transform="translate(-768.056 -373.983)" opacity="0.1"/>
      <path id="Tracciato_28" data-name="Tracciato 28" d="M782.461,526.275a67.571,67.571,0,0,0,4.025,39.117,10.612,10.612,0,0,1,.934,2.893c.21,1.875-.654,3.677-1.148,5.49-1.148,4.124-.486,8.517.249,12.737q.459,2.64.945,5.276c.318,1.714.624,3.577-.172,5.131.685,2.854,1.09,5.682,1.775,8.536a1.623,1.623,0,0,1,.065.7,2.062,2.062,0,0,1-.7.937,4.186,4.186,0,0,0-1.067,4.006c1.749-1.255,4.186-.815,6.183,0s3.964,1.913,6.122,1.913c-.314-2.533-.616-5.192.318-7.568.543-1.377,1.5-2.678,1.473-4.151-.027-1.32-.834-2.5-1.029-3.8a9.621,9.621,0,0,1,.092-2.433c.513-4.683-.069-9.412-.65-14.087a8.417,8.417,0,0,0-.643-2.678,3.955,3.955,0,0,1-.67-1.7c0-.715.578-1.3.792-1.978.383-1.255-.321-2.961.738-3.738,2.793-2.051,1.722-6.948,1.661-10.411q-.073-4.48-.383-8.953a38.134,38.134,0,0,1,2.112,15.434c-.122,1.714-.348,3.516.321,5.1.513,1.217,1.53,2.219,1.806,3.508a14.692,14.692,0,0,1,.088,2.43,2.5,2.5,0,0,0,1.014,2.1c.054,3.688.383,7.633.44,11.321a27.932,27.932,0,0,0,.459,5.624,7.165,7.165,0,0,1,.283,1.814,7.58,7.58,0,0,1-.6,2.231,12.79,12.79,0,0,0,1.913,11.8,5.7,5.7,0,0,1,4.622-2.586,16.765,16.765,0,0,1,5.429.8,10.632,10.632,0,0,1,1.27-6.466,5.291,5.291,0,0,0,.67-1.438,6.371,6.371,0,0,0-.536-2.9,14.582,14.582,0,0,1-.176-4.779,75.626,75.626,0,0,0-.708-16.039,13.589,13.589,0,0,0-.731-3.061c-.138-.352-.306-.689-.421-1.044a8.235,8.235,0,0,1-.306-1.959l-.44-6.122c-.31-4.289,1.1-8.524,2.081-12.71.44-1.875.918-3.746,1.213-5.651.4-2.594.467-5.245,1.056-7.805.528-2.3,1.481-4.534,1.68-6.887.306-3.646-1.209-7.17-2.678-10.514-.612-1.377-2.927-1.24-4.415-1.484-10.556-1.733-21.674-1.745-31.63,2.162A7.872,7.872,0,0,0,782.461,526.275Z" transform="translate(-776.065 -434.845)" fill="#3c354c"/>
      <path id="Tracciato_29" data-name="Tracciato 29" d="M801.857,352.007l1.171,4.553a12.164,12.164,0,0,1,.524,3.218,2.375,2.375,0,0,1-.256,1.148,2.735,2.735,0,0,1-.727.742c-.8.608-1.354,2.028-2.269,2.449.471.819,1.121.287,1.97.7,1.5.727,2.866,1.771,4.488,2.131a10.01,10.01,0,0,0,4.656-.383,16.078,16.078,0,0,0,6.03-2.8c1.733-1.412,2.72-2.659,2.713-4.89-1.913.226-3.616-1.706-4.461-3.443a9.349,9.349,0,0,1-.643-2.062l-1.025-4.511a22.109,22.109,0,0,0-3.1,1.462,11.238,11.238,0,0,1-3.516.509,37.882,37.882,0,0,0-6.259.811c-.283.057-.639.237-.57.513" transform="translate(-787.851 -328.485)" fill="#fbb3b2"/>
      <path id="Tracciato_30" data-name="Tracciato 30" d="M801.857,352.007l1.171,4.553a12.164,12.164,0,0,1,.524,3.218,2.375,2.375,0,0,1-.256,1.148,2.735,2.735,0,0,1-.727.742c-.8.608-1.354,2.028-2.269,2.449.471.819,1.121.287,1.97.7,1.5.727,2.866,1.771,4.488,2.131a10.01,10.01,0,0,0,4.656-.383,16.078,16.078,0,0,0,6.03-2.8c1.733-1.412,2.72-2.659,2.713-4.89-1.913.226-3.616-1.706-4.461-3.443a9.349,9.349,0,0,1-.643-2.062l-1.025-4.511a22.109,22.109,0,0,0-3.1,1.462,11.238,11.238,0,0,1-3.516.509,37.882,37.882,0,0,0-6.259.811c-.283.057-.639.237-.57.513" transform="translate(-787.851 -328.485)" opacity="0.1"/>
      <circle id="Ellisse_2" data-name="Ellisse 2" cx="10.131" cy="10.131" r="10.131" transform="translate(8.902 5.769)" fill="#fbb3b2"/>
      <path id="Tracciato_31" data-name="Tracciato 31" d="M805.815,369.223a9.183,9.183,0,0,1,2.3-3.061c1.427-1.251,3.378-2.265,3.715-4.132l3.091,3.6a1.666,1.666,0,0,1,.383.589,1.485,1.485,0,0,1-.291,1.19,12.39,12.39,0,0,1-3.111,2.977A94.478,94.478,0,0,0,804.4,377a.765.765,0,0,1-.4.245.723.723,0,0,1-.417-.119,17.406,17.406,0,0,1-5.345-4.346c-.111-.134-.249-.287-.429-.276a.552.552,0,0,0-.287.149c-1.029.842-2.154,1.848-3.474,1.718a8.229,8.229,0,0,0,3.038-5.356,10.126,10.126,0,0,1,.436-2.093,2.185,2.185,0,0,1,1.492-1.416,3.357,3.357,0,0,0,.857,4.109,8.448,8.448,0,0,0,3.8,1.84C804.97,371.7,805.352,370.225,805.815,369.223Z" transform="translate(-783.992 -336.622)" fill="#323444"/>
      <path id="Tracciato_32" data-name="Tracciato 32" d="M782.664,525.388c1.442.356,2.808.96,4.209,1.408a20.114,20.114,0,0,0,7.9.83,4.266,4.266,0,0,0,2.3-.731c.18-.145.344-.318.536-.451a3.743,3.743,0,0,1,1.029-.425c3.508-1.1,6.447-3.466,9.3-5.785.092-.077.2-.172.188-.295a.383.383,0,0,0-.115-.218L806.5,518c-3.933.67-7.962.417-11.952.318a17.352,17.352,0,0,0-2.456.065c-.788.092-1.565.291-2.341.459-2.95.643-5.965.888-8.953,1.308a1.382,1.382,0,0,0-.593.184,1.334,1.334,0,0,0-.318.352l-1.048,1.473a4.633,4.633,0,0,0-.88,1.687c-.245,1.148.268,1.53,1.243,1.381A9.081,9.081,0,0,1,782.664,525.388Z" transform="translate(-774.022 -432.918)" fill="#323444"/>
      <path id="Tracciato_33" data-name="Tracciato 33" d="M790.011,381.108a18.638,18.638,0,0,0-3.945-3.08,5.59,5.59,0,0,0-1.913-.765,2.388,2.388,0,0,0-1.959.482c-.34.3-.555.723-.884,1.041a4.4,4.4,0,0,1-1.4.792,24.836,24.836,0,0,0-4.92,2.8,11.285,11.285,0,0,0-2.231,2.058c-1.733,2.219-1.993,5.238-1.947,8.054.034,1.959,1.913,3.413,3.206,4.878a35.953,35.953,0,0,1,3.283,4.591,6.252,6.252,0,0,1,1.335,3.608c-.073,1.075-.7,2.085-.6,3.156.034.383.157.735.191,1.106a12.435,12.435,0,0,1-.31,2.3,29.192,29.192,0,0,0,.268,3.248,10.328,10.328,0,0,1-.283,2.215c-.735,3.5-1.657,7.013-1.469,10.583l-2.12.383a1.791,1.791,0,0,1-.409,2.858c3.31,1.106,6.887.547,10.4.543,2.9,0,5.8.383,8.7.329a15.031,15.031,0,0,0,8.283-2.219c.65-.444,1.247-.964,1.932-1.351a9.532,9.532,0,0,1,2.927-.956,29.046,29.046,0,0,1,5.739-.513,4.418,4.418,0,0,0,2.716-.528,3.882,3.882,0,0,0,1.148-2.793c.111-1.087.18-2.177.2-3.267a14.1,14.1,0,0,0-.134-2.54,16.65,16.65,0,0,0-.448-1.821l-1.442-5.081c-.6-2.1.233-4.4.409-6.569a1.648,1.648,0,0,0-.344-1.439c-.142-.119-.337-.2-.383-.383a.654.654,0,0,1,.092-.513,28.319,28.319,0,0,1,2.961-4.262,87.086,87.086,0,0,0,4.9-7.526,24.215,24.215,0,0,0-6.481-14.493,7.013,7.013,0,0,0-2.713-2,8.036,8.036,0,0,0-2.158-.348c-3-.2-6.122-.383-8.735-1.89a1.661,1.661,0,0,0-.624-.264c-.578-.065-1,.505-1.374.956a16.466,16.466,0,0,1-3.631,2.651A25.745,25.745,0,0,0,790.011,381.108Z" transform="translate(-769.642 -342.485)" fill="#5b5583"/>
      <path id="Tracciato_34" data-name="Tracciato 34" d="M880.031,418.242a28.724,28.724,0,0,1,.735,5.881,22.884,22.884,0,0,0,.624,3.524,5.622,5.622,0,0,0,.727,1.794,7.894,7.894,0,0,1,1.056,1.485,3.585,3.585,0,0,1,.157,1.194l.046,2.64a9.493,9.493,0,0,1-.624,4.109l-1.649,5.016a30.743,30.743,0,0,1-3.413,7.84,2.26,2.26,0,0,1-.983.922,4.776,4.776,0,0,1-.991.153,2.548,2.548,0,0,0-2.1,2.475,5.812,5.812,0,0,0-1.412-1.442l-3.355-2.678a14.342,14.342,0,0,0-3.738-2.422,10.135,10.135,0,0,0,7.048-8.517,3.826,3.826,0,0,1,.383-1.676c.279-.451.8-.8.834-1.328.046-.67-.712-1.175-.712-1.844,0-.444.329-.811.474-1.228a3.084,3.084,0,0,0,0-1.573L872.674,430a1.964,1.964,0,0,0-.23-.735,4.748,4.748,0,0,0-.574-.6c-.8-.891-.444-2.3,0-3.394a32.439,32.439,0,0,1,3.91-6.86,23.436,23.436,0,0,0,1.557-2.227c.406-.7.5-1.68.926-2.3C878.815,415.326,879.561,416.753,880.031,418.242Z" transform="translate(-827.864 -368.634)" fill="#5b5583"/>
      <path id="Tracciato_35" data-name="Tracciato 35" d="M861.3,504.814a1.84,1.84,0,0,0-.436.459,3.869,3.869,0,0,1-1.733,1.236c.383.275.731.547,1.09.826a47.776,47.776,0,0,1,7.269,6.952c.241-.861,1.683-.8,2.035-1.622a1.588,1.588,0,0,0,.076-.735,22.415,22.415,0,0,0-.551-3.826,4.332,4.332,0,0,0-.765-1.791,4.591,4.591,0,0,0-2.165-1.224C864.915,504.669,862.524,504.076,861.3,504.814Z" transform="translate(-824.172 -424.56)" fill="#323444"/>
      <path id="Tracciato_36" data-name="Tracciato 36" d="M842.317,511.265a20.157,20.157,0,0,1-3.443,2.495,12.96,12.96,0,0,0-2.743,1.209,2.726,2.726,0,0,0,2.6,1.408,6.184,6.184,0,0,0,2.912-1.068c.685-.421,1.488-.911,2.234-.616.115.581-.383,1.129-.383,1.718a1.732,1.732,0,0,0,.972,1.328c2.3,1.481,5.249,1.358,7.985,1.186a.72.72,0,0,0,.44-.13.693.693,0,0,0,.164-.505c.034-.6.05-1.205.054-1.81a2.594,2.594,0,0,0-1.11-2.556,31.224,31.224,0,0,0-4.783-3.386C845.534,509.563,843.828,510.14,842.317,511.265Z" transform="translate(-809.972 -428.004)" fill="#fbb3b2"/>
      <path id="Tracciato_37" data-name="Tracciato 37" d="M822.327,326.068a2.657,2.657,0,1,0,3.386,2.234A2.886,2.886,0,0,0,822.327,326.068Zm.578,4.805a2.249,2.249,0,1,1,2.338-2.514,2.449,2.449,0,0,1-2.338,2.514Z" transform="translate(-799.735 -314.403)" fill="#3c354c"/>
      <path id="Tracciato_38" data-name="Tracciato 38" d="M800.687,328.668a2.657,2.657,0,1,0,3.386,2.231A2.885,2.885,0,0,0,800.687,328.668Zm.578,4.8a2.249,2.249,0,1,1,2.338-2.514,2.443,2.443,0,0,1-2.338,2.514Z" transform="translate(-786.374 -316.008)" fill="#3c354c"/>
      <path id="Tracciato_39" data-name="Tracciato 39" d="M663.033,259.64l3.692.788-.364.972-3.482-1.022Z" transform="translate(-654.869 -246.242)" fill="#3c354c"/>
      <path id="Tracciato_40" data-name="Tracciato 40" d="M711.575,253.18l-3.405,1.641.585.857,3.141-1.817Z" transform="translate(-682.831 -242.253)" fill="#3c354c"/>
      <path id="Tracciato_41" data-name="Tracciato 41" d="M687.31,260.56l2.59-.31-.134.643-2.223.149Z" transform="translate(-669.952 -246.618)" fill="#3c354c"/>
      <path id="Tracciato_42" data-name="Tracciato 42" d="M789.85,308.694a4.108,4.108,0,0,0,.383-1.672,3.576,3.576,0,0,1,.176-1.018,2.847,2.847,0,0,1,.834-1.067,7.716,7.716,0,0,1,4.591-1.6,10.614,10.614,0,0,1,5.311,1.148,4.132,4.132,0,0,1,1.32.979c.536.654.65,1.5,1.19,2.146a3.126,3.126,0,0,0,2.931.918,15.259,15.259,0,0,0,.038-2.051,9.916,9.916,0,0,1,.608-1.7,4.175,4.175,0,0,0-2.055-4.821,7.932,7.932,0,0,1-1.829-1.148,8.655,8.655,0,0,1-.9-1.569,4.178,4.178,0,0,0-4.74-1.374c-.528.2-.995.5-1.53.715a12.616,12.616,0,0,1-3.221.62,9.866,9.866,0,0,0-3.122.819,3.5,3.5,0,0,0-1.955,2.112c-.1.413-.08.842-.184,1.251-.528,2.078-3.937,3.088-4.128,5.207a3.039,3.039,0,0,0,.869,2.123c.36.425,1.221,1.561,1.829,1.726s1.071-.413,1.653-.612C788.836,309.54,789.391,309.479,789.85,308.694Z" transform="translate(-777.516 -295.621)" fill="#cbceda"/>
    </g>
    <path id="Tracciato_43" data-name="Tracciato 43" d="M912.81,682c0,19.222,12.06,34.778,26.962,34.778" transform="translate(-611.706 -412.849)" fill="#46455b"/>
    <path id="Tracciato_44" data-name="Tracciato 44" d="M983.28,716.159c0-19.44,13.46-35.169,30.092-35.169" transform="translate(-655.215 -412.226)" fill="#6c63ff"/>
    <path id="Tracciato_45" data-name="Tracciato 45" d="M938.35,686.56c0,18.261,7.69,33.038,17.19,33.038" transform="translate(-627.475 -415.664)" fill="#6c63ff"/>
    <path id="Tracciato_46" data-name="Tracciato 46" d="M983.28,700.39c0-24.839,15.557-44.94,34.779-44.94" transform="translate(-655.215 -396.457)" fill="#46455b"/>
    <ellipse id="Ellisse_3" data-name="Ellisse 3" cx="6.703" cy="1.133" rx="6.703" ry="1.133" transform="translate(320.195 308.31)" fill="#6c63ff" opacity="0.1"/>
    <path id="Tracciato_47" data-name="Tracciato 47" d="M968.46,770.216s3.826-.119,4.974-.937,5.881-1.8,6.168-.486,5.739,6.546,1.427,6.581S971,774.7,969.849,774,968.46,770.216,968.46,770.216Z" transform="translate(-646.065 -466.038)" fill="#a8a8a8"/>
    <path id="Tracciato_48" data-name="Tracciato 48" d="M981.109,778.242c-4.316.034-10.028-.673-11.18-1.374-.876-.532-1.224-2.449-1.343-3.329h-.126s.241,3.084,1.393,3.784,6.864,1.408,11.18,1.374c1.247,0,1.676-.455,1.653-1.11C982.513,777.986,982.058,778.234,981.109,778.242Z" transform="translate(-646.065 -469.366)" opacity="0.2"/>
    <path id="Tracciato_49" data-name="Tracciato 49" d="M148.31,711.36c0,15.3,9.592,27.67,21.449,27.67" transform="translate(-139.705 -430.976)" fill="#46455b"/>
    <path id="Tracciato_50" data-name="Tracciato 50" d="M204.37,738.53c0-15.465,10.713-27.98,23.939-27.98" transform="translate(-174.317 -430.476)" fill="#6c63ff"/>
    <path id="Tracciato_51" data-name="Tracciato 51" d="M168.62,715c0,14.539,6.122,26.285,13.678,26.285" transform="translate(-152.245 -433.223)" fill="#6c63ff"/>
    <path id="Tracciato_52" data-name="Tracciato 52" d="M204.37,725.984c0-19.761,12.377-35.754,27.67-35.754" transform="translate(-174.317 -417.93)" fill="#46455b"/>
    <ellipse id="Ellisse_4" data-name="Ellisse 4" cx="5.333" cy="0.903" rx="5.333" ry="0.903" transform="translate(23.79 311.536)" fill="#6c63ff" opacity="0.1"/>
    <path id="Tracciato_53" data-name="Tracciato 53" d="M192.58,781.5s3.042-.1,3.956-.765,4.683-1.435,4.909-.383,4.572,5.207,1.148,5.234-7.981-.536-8.9-1.09S192.58,781.5,192.58,781.5Z" transform="translate(-167.038 -473.251)" fill="#a8a8a8"/>
    <path id="Tracciato_54" data-name="Tracciato 54" d="M202.642,787.962c-3.443.027-7.981-.536-8.9-1.094-.7-.421-.972-1.948-1.067-2.648h-.1s.191,2.452,1.106,3.011,5.464,1.117,8.9,1.09c.991,0,1.335-.36,1.316-.884C203.76,787.744,203.381,787.939,202.642,787.962Z" transform="translate(-167.038 -475.96)" opacity="0.2"/>
  </g>
</svg>
